The whole story takes place on the 18th of April in the year 1945. The battles had ceased in Europe, but Brazil still found itself tecnically at war. The encounter between the interrogator, a customs official and former-torturer for the Political Police of President Vargas and a Polish ex-actor who had lived the horrers of war but was suspected of being a Nazi fugitive, takes place in the Rio de Janeiro port immigration office. The film portrays a critical period of Brazilian history and speaks of Manichaeism and of fighting for life. 

   General
      Complete name : Tempos de Paz .avi
      Format : AVI
      Format/Info : Audio Video Interleave
      File size : 1.45 GiB
      Duration : 1h 20mn
      Overall bit rate : 2 578 Kbps
      Writing application : VirtualDubMod 1.5.10.2 (build 2542/release)
      Writing library : VirtualDubMod build 2542/release
   Video #0
      ID : 0
      Format : MPEG-4 Visual
      Format profile : AdvancedSimple@L5
      Format settings, BVOP : Yes
      Format settings, QPel : No
      Format settings, GMC : No warppoints
      Format settings, Matrix : Custom
      Muxing mode : Packed bitstream
      Codec ID : XVID
      Codec ID/Hint : XviD
      Duration : 1h 20mn
      Bit rate : 2 121 Kbps
      Width : 720 pixels
      Height : 400 pixels
      Display aspect ratio : 16:9
      Frame rate : 23.976 fps
      Resolution : 24 bits
      Colorimetry : 4:2:0
      Scan type : Progressive
      Bits/(Pixel*Frame) : 0.307
      Stream size : 1.19 GiB (82%)
      Writing library : XviD 1.2.1 (UTC 2008-12-04)
   Audio #1
      ID : 1
      Format : AC-3
      Format/Info : Audio Coding 3
      Codec ID : 2000
      Duration : 1h 20mn
      Bit rate mode : Constant
      Bit rate : 448 Kbps
      Channel(s) : 2 channels
      Channel positions : L R
      Sampling rate : 48.0 KHz
      Stream size : 258 MiB (17%)
      Alignment : Split accross interleaves
      Interleave, duration : 42 ms (1.00 video frame)
      Interleave, preload duration : 500 ms
 
http://www.imdb.com/title/tt1223932/

Portuguese audio; English subtitles

Blu-ray rip